<svg version="1.1" id="Layer_1" xmlns="http://www.w3.org/2000/svg" xmlns:xlink="http://www.w3.org/1999/xlink" x="0px" y="0px"
	 width="100%" viewBox="0 0 608 608" enable-background="new 0 0 608 608" xml:space="preserve">
	
	<!-- Gelber Diamant-Hintergrund -->
	<rect x="80" y="80" width="448" height="448" 
	      fill="#FFC107" 
	      transform="rotate(45 304 304)"/>
	
	<!-- Schwarzer Kiwi und Details -->
	<path fill="#000000" opacity="1.000000" stroke="none" 
		d="
	M250.157257,55.156776 
		C260.405701,44.880043 270.451813,34.900032 280.376648,24.800798 
		C296.279816,8.618169 317.502625,8.574035 333.338043,24.819061 
		C336.694214,28.262056 340.399597,31.406473 343.151550,35.837719 
		C341.786041,36.741447 341.077332,35.086327 340.096375,35.232124 
		C336.956024,38.741062 338.142029,41.462490 341.198608,44.514076 
		C396.724304,99.949059 452.168304,155.465820 507.641724,210.953201 
		C530.018799,233.335892 552.423035,255.691528 574.821899,278.052460 
		C575.979919,279.208588 577.203857,280.298767 578.602112,281.612213 
		C578.308105,276.255188 573.262146,274.916626 571.031677,271.330994 
		C566.985718,264.826904 559.595703,261.616760 554.587524,256.009552 
		C551.997681,253.109863 550.555969,248.995316 547.626160,246.630386 
		C542.464355,242.463638 539.785522,236.258743 534.673279,232.202637 
		C531.980957,230.066498 529.827576,227.102264 526.077881,226.497787 
		C525.530334,226.409500 524.757935,225.818024 524.628174,225.319244 
		C522.618347,217.594482 515.319641,214.364990 510.791473,208.808167 
		C505.204834,201.952362 498.363373,196.315125 492.725800,189.578506 
		C488.820221,184.911499 483.418823,182.022141 479.574402,177.399643 
		C474.093262,170.809235 469.195679,163.696625 462.238983,158.439362 
		C461.349854,157.767441 460.852325,156.552505 461.658295,155.064682 
		C463.853088,155.081436 464.975403,156.957977 466.263275,158.232620 
		C490.651733,182.371078 514.981140,206.569229 539.317383,230.760437 
		C556.334778,247.676437 573.360107,264.584412 590.351868,281.526154 
		C604.886902,296.018372 605.189453,317.524323 590.719971,332.014099 
		C527.375305,395.447388 463.925751,458.775970 400.527649,522.155945 
		C378.256714,544.420532 356.015076,566.714417 333.776581,589.011353 
		C317.404572,605.426331 296.711060,605.479126 280.415405,589.133545 
		C228.889709,537.450073 177.395157,485.735535 125.815582,434.105896 
		C92.369408,400.627258 58.788017,367.283691 25.283024,333.863770 
		C11.875116,320.489929 9.196312,305.455109 17.279898,289.790741 
		C18.916588,286.619141 21.235485,284.039795 23.716532,281.565491 
		C57.103260,248.269531 90.462906,214.946304 123.912949,181.714050 
		C130.853668,174.818512 138.134735,168.265533 145.470337,161.355560 
		C146.591614,162.855301 147.553467,164.141830 148.680038,165.648666 
		C157.349014,161.793152 161.851624,154.558167 164.807404,145.363739 
		C163.117966,143.544052 164.671494,141.799545 166.663513,139.644272 
		C188.382690,116.144875 211.632782,94.157440 233.989029,71.289154 
		C239.228424,65.929771 244.593338,60.693115 250.157257,55.156776 
	M323.295471,571.801697 
		C342.596802,552.505310 361.899719,533.210510 381.199036,513.912109 
		C418.654510,476.458313 456.108154,439.002686 493.562317,401.547607 
		C520.651489,374.457703 547.765442,347.392548 574.815186,320.263306 
		C583.889404,311.162445 584.028198,303.010345 575.317871,294.285187 
		C540.246521,259.154083 505.172363,224.025635 470.029083,188.966461 
		C420.268799,139.325256 370.432648,89.760109 320.662201,40.129086 
		C310.383942,29.879608 303.336792,29.712337 293.059937,39.929981 
		C276.418518,56.475468 259.831543,73.075790 243.236694,89.668068 
		C185.751541,147.144363 128.272491,204.626770 70.792145,262.107880 
		C60.190510,272.709656 49.569275,283.291962 39.002285,293.928131 
		C30.075331,302.913513 30.076899,310.690613 39.049301,319.859192 
		C44.404079,325.331024 49.928989,330.635925 55.336548,336.056610 
		C91.787277,372.595703 128.196381,409.176361 164.681061,445.681488 
		C189.405502,470.419708 214.249176,495.038757 239.005646,519.745056 
		C258.214050,538.914551 277.334686,558.172058 296.573425,577.310913 
		C301.574341,582.285950 308.269165,582.838501 314.511383,579.464600 
		C317.836548,577.667358 320.008453,574.661499 323.295471,571.801697 
	M481.301331,428.785828 
		C469.089233,441.049622 456.898590,453.334869 444.661041,465.573212 
		C406.874664,503.362152 369.064178,541.126953 331.302673,578.940674 
		C330.143158,580.101746 327.839569,581.499817 329.675873,583.418640 
		C331.489960,585.314392 332.762756,583.161560 334.179260,582.036072 
		C351.423767,568.334167 366.096497,551.951111 381.567413,536.420654 
		C400.454132,517.461243 418.873016,498.036713 437.587433,478.904510 
		C456.541718,459.527069 475.297302,439.940308 494.707123,421.027313 
		C518.983032,397.372772 543.934509,374.404114 566.648621,349.198822 
		C569.202576,346.364838 570.740112,342.615021 572.748962,339.289917 
		C572.202698,338.843658 571.656433,338.397430 571.110107,337.951202 
		C541.329773,368.058990 511.549377,398.166748 481.301331,428.785828 
	M111.959320,408.941498 
		C111.720619,409.045258 111.468140,409.128540 111.255745,409.271393 
		C111.216904,409.297516 111.308380,409.587585 111.394836,409.719727 
		C114.508675,414.479553 119.986916,417.404388 122.774170,421.955597 
		C129.865143,433.534241 140.475876,441.682404 149.800140,450.909576 
		C156.238983,457.281372 162.848618,463.698730 168.895737,470.339630 
		C184.670624,487.663574 201.000992,504.398438 218.121933,520.343384 
		C222.988541,524.875854 227.740494,530.131714 235.682831,532.560059 
		C234.154709,530.834351 233.440079,529.938782 232.636093,529.132324 
		C212.418182,508.850922 192.231796,488.537842 171.953537,468.316895 
		C152.144592,448.563965 132.240158,428.906769 111.959320,408.941498 
	M147.162949,166.588196 
		C143.231277,165.211502 134.952972,171.493515 135.417694,175.563889 
		C135.598633,177.148804 137.100769,178.405014 138.133484,177.268906 
		C141.248703,173.841766 146.177460,172.037155 147.162949,166.588196 
	M79.559410,378.917572 
		C82.143044,381.082001 84.726685,383.246429 87.310326,385.410889 
		C87.239708,385.453186 87.169098,385.495483 87.098488,385.537781 
		C79.087875,377.404480 71.077271,369.271179 62.810886,360.878174 
		C66.987846,368.177521 74.391373,372.084381 79.559410,378.917572 
	z"/>
	<path fill="#000000" opacity="1.000000" stroke="none" 
		d="
	M400.562256,92.754463 
		C407.605499,99.863152 414.417542,106.749733 421.229553,113.636314 
		C417.957428,112.000290 412.546753,113.380241 412.539856,107.395653 
		C412.538025,105.808899 410.035217,104.787117 407.925049,104.219299 
		C399.790344,102.030357 396.710846,97.761436 397.938721,91.010651 
		C399.127777,90.898621 399.583557,91.946060 400.562256,92.754463 
	z"/>
	<path fill="#000000" opacity="1.000000" stroke="none" 
		d="
	M353.191681,47.862495 
		C351.963501,46.126118 349.993469,45.420254 349.330963,42.385448 
		C355.269196,46.327301 358.872162,51.309635 362.790161,55.979340 
		C359.036407,54.065399 356.319672,50.988670 353.191681,47.862495 
	z"/>
	<path fill="#000000" opacity="1.000000" stroke="none" 
		d="
	M484.195374,366.200470 
		C484.481628,367.054443 484.703430,367.513428 484.806061,367.997620 
		C485.210449,369.904938 486.264771,372.221771 483.934357,373.334808 
		C481.750580,374.377777 480.186676,372.508331 478.988647,370.910980 
		C472.594116,362.385071 466.462250,353.654907 459.873810,345.283234 
		C448.205658,330.457001 435.648285,316.410400 420.279968,305.275635 
		C408.803040,296.960266 396.470367,290.508820 381.617767,291.357056 
		C377.435333,291.595917 373.516907,292.456268 369.888947,294.918579 
		C358.393127,302.720886 345.463013,306.936615 331.881042,309.226593 
		C327.082428,310.035675 322.558777,311.362518 318.137573,313.429840 
		C303.899658,320.087372 288.940399,324.575043 273.462494,327.177216 
		C268.362793,328.034607 264.748871,330.721802 262.380707,334.849243 
		C257.276642,343.745117 255.596985,353.198853 259.371277,363.117432 
		C261.970001,369.946716 267.346008,373.763031 274.693756,373.664764 
		C283.537384,373.546509 292.345215,373.818237 300.965820,375.889832 
		C303.615540,376.526550 308.218658,376.473907 307.462097,380.357849 
		C306.824524,383.630951 302.697449,382.095154 299.994385,382.049316 
		C299.041168,382.033203 298.119202,381.215729 296.999878,382.018585 
		C296.214294,384.315704 298.128204,385.080444 299.549408,386.067413 
		C301.049683,387.109283 302.700195,387.946442 304.140198,389.060303 
		C305.644196,390.223663 306.881317,391.782898 305.881378,393.784760 
		C304.842194,395.865173 302.721832,395.520569 301.005585,395.058838 
		C296.190338,393.763214 291.846558,391.166534 286.925171,390.020050 
		C283.884094,389.311584 281.412720,389.630859 278.817230,391.660522 
		C279.556335,394.909424 282.153381,396.876526 283.961304,399.362885 
		C285.390717,401.328705 287.637939,403.648773 285.388794,405.988953 
		C282.798889,408.683594 280.979156,405.701385 279.190796,404.186798 
		C273.214691,399.125671 267.293274,393.997711 260.404633,390.163086 
		C256.459747,387.967133 252.377899,386.194183 247.767258,386.313324 
		C246.740952,384.739349 247.582565,383.380188 248.554718,382.737671 
		C252.816711,379.920746 252.015778,375.915771 251.232788,372.007904 
		C250.187088,366.788788 249.024857,361.556152 246.329056,356.875885 
		C243.101044,351.271637 238.495483,350.850281 234.272308,355.693939 
		C229.930649,360.673431 229.438812,366.591095 230.763687,372.640564 
		C232.587250,380.967163 236.287842,388.658569 239.488510,396.517212 
		C240.815613,399.775696 243.202438,399.786194 245.993347,399.603729 
		C252.538055,399.175751 258.970093,399.736786 265.060150,402.389252 
		C267.084808,403.271149 270.419250,403.687653 269.656555,406.630951 
		C268.903320,409.537872 265.680206,408.060028 263.519592,408.193237 
		C262.232239,408.272614 260.913788,407.735565 259.600464,407.533234 
		C257.711365,407.242188 255.909775,407.256317 254.732330,409.569550 
		C256.237854,412.713104 259.823395,413.357391 262.328705,415.334198 
		C265.121246,417.537628 269.871643,419.578796 267.618622,423.645325 
		C265.426208,427.602417 261.416168,424.119965 258.286499,423.180176 
		C254.283813,421.978210 251.032181,418.666992 246.364792,418.398102 
		C245.537140,422.560181 247.940109,425.634399 248.111664,429.009552 
		C248.263138,431.989502 249.999954,436.352936 246.663422,437.639374 
		C242.470749,439.255951 242.251434,434.189819 240.822876,431.753387 
		C236.574219,424.507019 231.804169,417.835236 224.921127,412.752747 
		C220.489334,409.480286 215.489456,408.236298 210.051331,407.844391 
		C210.161972,403.185150 212.979233,401.026672 215.888367,399.172821 
		C218.730179,397.361877 219.680847,395.121124 219.753815,391.746552 
		C220.019638,379.451233 219.121613,367.485809 212.717270,356.536499 
		C208.111237,348.661682 201.783508,342.608521 193.465363,338.977936 
		C174.539474,330.717316 167.286240,315.295685 165.573715,295.812164 
		C163.259689,269.485229 170.882919,246.373154 187.750763,226.468872 
		C200.690979,211.199280 217.112213,200.404953 235.989349,193.718796 
		C261.746552,184.595825 287.649384,182.982788 313.335327,194.031647 
		C327.520569,200.133484 338.544434,210.011963 346.472961,223.311356 
		C348.944702,227.457489 351.474518,231.547958 354.756287,235.165146 
		C360.342224,241.322098 366.977081,243.335037 375.033051,241.255188 
		C381.792175,239.510147 388.583313,237.807373 395.696075,239.043442 
		C408.736267,241.309616 416.765106,249.699249 422.333191,260.953796 
		C423.871368,264.062866 425.216858,267.409607 425.856384,270.797211 
		C429.316772,289.126892 439.512421,303.803406 450.769287,317.998749 
		C459.664093,329.215454 469.046082,340.071259 476.726227,352.212250 
		C479.488098,356.578278 482.112915,361.019196 484.195374,366.200470 
	M396.288818,269.296722 
		C398.986450,270.192291 401.218170,269.522491 402.841858,267.191650 
		C403.996979,265.533447 403.978699,263.703888 402.900848,262.043884 
		C400.918335,258.990784 397.966705,258.226501 395.245209,260.450195 
		C392.026154,263.080475 392.605865,266.223633 396.288818,269.296722 
	z"/>
	<path fill="#000000" opacity="1.000000" stroke="none" 
		d="
	M301.445435,75.647263 
		C300.685364,76.047256 300.250519,76.330437 299.775848,76.438194 
		C296.428833,77.198059 293.737946,76.174187 292.499603,72.931122 
		C291.567169,70.489235 293.217865,68.723053 295.269775,67.758987 
		C298.201538,66.381531 301.194580,66.508194 303.410004,69.161369 
		C305.645752,71.838913 303.612213,73.690590 301.445435,75.647263 
	z"/>
	<path fill="#000000" opacity="1.000000" stroke="none" 
		d="
	M312.836395,50.214527 
		C314.036926,53.672028 311.894135,61.380844 309.572998,62.985725 
		C307.305237,64.553696 304.723541,62.183361 303.435913,57.130150 
		C307.190216,56.580025 312.427216,57.706326 311.497955,51.054916 
		C311.395905,50.324799 311.682526,49.770355 312.836395,50.214527 
	z"/>
	<path fill="#000000" opacity="1.000000" stroke="none" 
		d="
	M352.223755,536.979614 
		C355.825012,533.898926 350.488617,535.321289 350.904755,533.492126 
		C352.343994,532.151123 353.877533,532.090271 355.256714,533.886353 
		C356.392426,535.365417 355.731964,536.731445 354.567841,537.830994 
		C352.852417,539.451294 351.389282,539.079407 350.185120,537.094177 
		C350.525024,536.968384 350.783173,536.797058 351.041718,536.796448 
		C351.360474,536.795715 351.679565,536.937134 352.223755,536.979614 
	z"/>
</svg>